HIERARCHY
ROOT Hips
{
	OFFSET 0.0000 0.0000 0.0000
	CHANNELS 6 Xposition Yposition Zposition Zrotation Xrotation Yrotation
	JOINT Ab
	{
		OFFSET -0.0000 8.0846 -0.0000
		CHANNELS 3 Zrotation Xrotation Yrotation
		JOINT Chest
		{
			OFFSET -0.0000 23.4989 -0.0000
			CHANNELS 3 Zrotation Xrotation Yrotation
			JOINT Neck
			{
				OFFSET -0.0000 23.4989 0.0000
				CHANNELS 3 Zrotation Xrotation Yrotation
				JOINT Head
				{
					OFFSET -0.0000 10.7556 0.0000
					CHANNELS 3 Zrotation Xrotation Yrotation
					End Site
					{
						OFFSET -0.0000 16.6222 0.0000
					}
				}
			}
			JOINT LeftCollar
			{
				OFFSET -0.0000 23.4989 0.0000
				CHANNELS 3 Zrotation Xrotation Yrotation
				JOINT LeftShoulder
				{
					OFFSET 19.5556 -0.0000 0.0000
					CHANNELS 3 Zrotation Xrotation Yrotation
					JOINT LeftElbow
					{
						OFFSET 27.1528 0.0000 0.0000
						CHANNELS 3 Zrotation Xrotation Yrotation
						JOINT LeftWrist
						{
							OFFSET 22.0582 0.0000 0.0000
							CHANNELS 3 Zrotation Xrotation Yrotation
							End Site
							{
								OFFSET 0.0000 -14.6667 0.0000
							}
						}
					}
				}
			}
			JOINT RightCollar
			{
				OFFSET -0.0000 23.4989 0.0000
				CHANNELS 3 Zrotation Xrotation Yrotation
				JOINT RightShoulder
				{
					OFFSET -19.5556 0.0000 0.0000
					CHANNELS 3 Zrotation Xrotation Yrotation
					JOINT RightElbow
					{
						OFFSET -27.1528 0.0000 0.0000
						CHANNELS 3 Zrotation Xrotation Yrotation
						JOINT RightWrist
						{
							OFFSET -22.0582 0.0000 0.0000
							CHANNELS 3 Zrotation Xrotation Yrotation
							End Site
							{
								OFFSET -0.0000 -14.6667 0.0000
							}
						}
					}
				}
			}
		}
	}
	JOINT LeftHip
	{
		OFFSET 11.7333 0.0000 0.0000
		CHANNELS 3 Zrotation Xrotation Yrotation
		JOINT LeftKnee
		{
			OFFSET -0.0000 -44.6617 0.0000
			CHANNELS 3 Zrotation Xrotation Yrotation
			JOINT LeftAnkle
			{
				OFFSET -0.0000 -38.4819 0.0000
				CHANNELS 3 Zrotation Xrotation Yrotation
				End Site
				{
					OFFSET -0.0000 -4.8889 16.6222
				}
			}
		}
	}
	JOINT RightHip
	{
		OFFSET -11.7333 0.0000 0.0000
		CHANNELS 3 Zrotation Xrotation Yrotation
		JOINT RightKnee
		{
			OFFSET -0.0000 -44.6617 0.0000
			CHANNELS 3 Zrotation Xrotation Yrotation
			JOINT RightAnkle
			{
				OFFSET -0.0000 -38.4819 0.0000
				CHANNELS 3 Zrotation Xrotation Yrotation
				End Site
				{
					OFFSET -0.0000 -4.8889 16.6222
				}
			}
		}
	}
}
MOTION
Frames: 13
Frame Time: 0.250000
-74.6403 87.5092 -84.0595 3.4629 6.1095 67.0408 7.0047 7.3551 -2.0441 -13.2680 -3.7640 -2.0310 5.5137 -0.6824 6.1003 -2.4774 -7.8059 5.8967 -15.1352 -2.3749 17.8108 -46.6382 27.4579 -0.6455 15.1273 -3.4533 -25.6452 85.3231 -4.5947 -22.1248 29.0828 -3.1604 -12.1822 28.3987 49.1011 10.7841 -22.5824 -6.8639 33.7612 -94.4115 -6.9674 9.9482 3.7832 -14.9851 -1.2788 -9.3292 26.8020 11.0936 -0.9083 -10.5806 14.8348 -7.0698 -0.6333 -3.5958 0.8565 23.7115 3.7447 0.7735 -17.5557 -24.9432 
-78.2797 88.4246 -83.6444 2.5363 3.9429 73.7264 5.2396 7.0382 -1.7688 -11.7108 -1.0729 -1.5547 -0.4793 -0.2431 2.5603 3.8099 -7.5285 2.8118 -13.1357 -2.7278 23.1789 -50.9808 49.9904 -11.0554 20.3362 -4.9837 -27.1756 88.1311 -4.5930 -6.8380 31.4523 -3.2033 -11.4520 34.9512 52.9092 11.0133 -17.0364 -4.9187 31.5838 -90.8270 -9.3961 22.1948 2.9404 -12.2500 -2.7620 -0.9146 13.3246 5.3904 -0.9349 -2.4259 13.8126 -2.8817 3.7092 -5.6789 2.0967 13.0171 1.0697 -1.4717 -11.4745 -25.9255 
-77.9290 88.5098 -84.3244 1.8660 4.0182 71.5270 4.8450 7.9233 -2.3718 -11.7915 -1.4497 -2.1830 -0.6656 0.5641 1.9237 5.6666 -7.4837 2.2910 -13.5137 -2.5512 21.5506 -50.6688 46.8058 -10.8580 19.2511 -4.8117 -27.4801 87.4196 -4.3183 -14.2122 31.2700 -3.2464 -11.5443 36.4257 53.9122 9.5804 -20.1215 -6.1465 33.5153 -92.0232 -9.0547 18.6404 3.3941 -12.8209 -0.9833 -1.7627 14.3296 6.2522 -0.8356 -3.6190 14.0749 -3.5233 1.6279 -5.5481 1.7147 15.1191 1.9979 -0.9296 -12.1776 -24.8908 
-65.7421 82.5751 -84.3404 -3.6305 1.0440 -55.0296 2.3418 22.6838 -7.7184 -8.5826 6.1377 -6.7861 -11.7618 15.4879 -35.9630 36.9876 -3.6004 -36.3307 -4.2078 -0.9826 30.6564 -26.9030 72.1334 -14.8956 22.5493 -11.9940 -56.4058 95.9198 8.2863 8.5134 20.1920 -3.8018 -22.6349 -16.1487 53.5291 59.5601 -34.8039 -18.6236 55.7651 -104.0777 -13.8409 12.9550 5.1868 -18.4141 -1.5173 10.8541 74.4685 -33.7438 7.3245 -29.4638 21.3049 5.4597 -29.2407 14.8035 0.4407 27.9496 12.8508 4.7590 -7.8096 -15.3248 
-53.1524 84.4003 -64.8450 5.7750 1.4721 -191.5309 5.9828 15.5196 -4.1313 -13.5335 -0.6351 -3.4017 -17.6771 -2.4480 -16.2499 31.0058 -5.8272 -14.2048 -11.6229 -2.1743 20.9685 -35.2167 32.6009 -0.3974 22.0943 -5.7277 -29.3061 90.8432 -1.3893 -3.5977 31.1266 -2.3428 -8.0072 25.5375 55.0986 21.7291 -16.9055 -4.4810 29.3292 -91.7432 -7.9802 20.0286 1.9998 -14.8656 2.0632 -10.9833 52.0781 4.1323 14.1478 -26.3966 29.0224 -6.6473 -19.9379 0.5157 0.1246 31.8477 5.9343 14.0935 -1.1886 -17.3363 
-48.0584 87.7535 -67.0482 0.8600 2.4518 -204.1865 7.8175 3.6483 -8.2109 -11.7185 -1.5163 -8.1214 -4.8503 -3.4569 -2.6388 11.2736 -0.5702 -2.4361 -13.9127 -2.9943 24.1734 -34.8219 56.3224 -26.2010 24.4174 -10.0894 -44.9472 86.7461 -5.6126 -9.0308 31.3423 -3.1652 -11.2192 43.5404 46.0545 -1.2518 -18.4752 -5.3523 32.1721 -87.7586 -7.0532 18.1091 -2.1335 0.4836 2.4374 -5.9046 25.6925 6.3576 9.0563 -21.5014 25.3607 -6.8750 -10.6211 1.8378 0.7753 11.5494 6.1847 7.8086 0.9237 -16.2102 
-48.5975 88.4570 -62.7224 -0.2177 2.6393 -199.5266 6.1172 2.4849 -4.6826 -13.0085 -2.7161 -4.8609 -9.4542 -0.0868 -3.2503 15.5907 -4.2546 -2.6600 -14.7141 -2.5553 19.1118 -52.4366 36.1082 -2.3522 10.7980 -1.9063 -19.9907 87.1228 -0.8163 -20.2961 31.8095 -2.9723 -10.6551 39.8924 53.1036 5.8141 -20.1816 -6.1286 31.9289 -86.5468 -9.3764 16.4993 -2.7005 0.1488 2.5293 -3.4994 19.2063 3.1009 8.5840 -17.2507 23.2464 -7.1823 -7.3580 0.5280 1.2048 8.5918 3.2919 5.1122 1.0736 -17.1608 
-46.3041 88.8190 -60.9382 -1.7318 1.4220 -195.6975 6.0162 2.0246 -5.3436 -12.7233 -2.8023 -5.5485 -7.1421 0.0106 -2.0498 14.1147 -3.5746 -1.6058 -14.7608 -2.8927 22.0187 -47.4243 48.9812 -12.5964 17.7235 -4.5729 -28.5666 85.8030 -4.2351 -13.3426 32.1111 -3.0431 -10.3629 42.1118 51.2064 1.3763 -20.3147 -5.5321 30.2062 -86.7789 -9.0145 15.3580 -2.3984 -0.4481 1.6323 -1.5165 15.0244 -0.2419 6.2825 -14.5597 22.2465 -6.7617 -8.1943 -1.1728 1.1368 7.6405 2.3906 3.7182 1.5130 -18.2003 
-45.7179 88.8062 -61.3908 -2.4147 -0.0195 -199.0863 5.7325 3.9698 -6.3319 -11.6205 -2.3570 -6.3706 -4.0362 -0.7568 -0.3888 10.1638 -5.2829 0.1150 -15.2258 -2.7583 20.3498 -40.5478 44.7906 -15.1037 15.5938 -4.6860 -33.6020 85.3438 -3.9967 -18.6337 31.3758 -3.1892 -11.2931 43.2650 45.2804 -3.5616 -19.3124 -5.5601 32.7977 -88.8127 -8.0648 16.5825 -2.2255 -1.7074 1.4522 -2.6024 15.6601 3.4961 6.1473 -15.5279 22.4802 -6.2816 -11.6802 -0.2851 1.0858 10.6376 3.5913 3.4933 0.5115 -17.2355 
-34.1081 84.4185 -66.6106 3.5853 -2.8601 -115.5948 6.3493 18.5066 -1.5698 -18.8691 -0.7145 -0.6345 8.1133 -1.9511 17.0535 -10.6672 -19.8023 15.0460 -12.1329 -3.1069 28.5506 -24.4619 43.9521 -7.6966 28.8988 -12.2250 -43.2322 83.8297 -1.9956 -6.4496 23.7831 -3.4359 -15.9325 46.0695 61.5085 -3.9752 -12.9015 -3.6996 30.5104 -84.3859 -9.1576 26.0274 7.9758 -31.0318 7.4958 -22.3965 34.3972 35.8313 15.2509 -11.0476 24.4469 -3.8801 -6.0272 -16.3739 3.9783 37.0125 -1.9801 15.2709 -19.5211 -20.2841 
-66.9524 84.1293 -87.9694 3.7269 -2.3766 -5.5988 4.2273 20.7222 -0.6476 -14.6686 -3.0759 -0.2824 4.5838 -8.2547 9.0443 -0.2173 -6.1386 8.6985 -13.2865 -2.0660 17.2447 -55.1981 27.2398 -2.0908 13.6881 -2.4170 -20.0946 93.5986 -3.0460 -15.7272 30.8217 -2.3520 -8.7092 16.7863 48.4825 21.7256 -31.5786 -9.5673 32.5448 -95.2944 -7.3499 -8.1293 0.0779 -27.6069 -6.3716 -0.0637 39.7902 -17.9577 -1.7592 -13.2368 15.5169 -11.2536 -3.7679 5.2117 -1.1485 35.9188 12.8058 3.6981 -24.5413 -21.6277 
-84.3222 88.2882 -98.3215 3.4728 4.3390 37.5276 2.8997 7.8924 -2.0056 -12.8289 -1.8503 -2.0073 -2.5232 -3.6536 2.1405 6.9112 -9.3336 2.7846 -14.9569 -2.4144 18.2902 -49.8108 35.2833 -7.9153 14.1239 -3.4807 -27.6703 89.7334 -6.2715 -18.6941 31.9831 -3.2737 -11.2412 26.1391 52.3349 13.3357 -17.7917 -5.5140 33.7649 -87.8625 -11.1175 19.3035 2.6101 -16.8127 0.0751 -5.4581 26.1833 5.0554 0.9881 -11.5094 16.7157 0.4711 -2.0844 -11.6308 2.2817 17.7403 -2.7310 -6.0847 -13.0837 -31.9170 
-84.6434 89.0836 -101.1015 3.7134 4.5353 33.2296 4.3603 4.6365 -2.9569 -12.5678 -2.7582 -3.0841 -3.3936 -0.7709 2.9708 7.9588 -2.7210 3.1811 -14.9597 -2.5014 18.8513 -51.6011 38.5880 -7.8421 15.3155 -3.7320 -27.1232 86.6082 -3.6304 -15.4394 33.0863 -3.2886 -11.0418 18.6947 57.3554 23.9996 -17.9821 -5.4350 33.5045 -86.6197 -10.1428 19.4864 0.7631 -14.4100 -0.1225 -3.1553 18.8037 6.8538 1.1830 -7.1249 18.0038 -0.7078 -3.6318 -11.1772 1.7918 15.6220 -3.5140 -4.6871 -10.3071 -28.6611 
